<?xml version="1.0" standalone="no"?>
<!DOCTYPE svg PUBLIC "-//W3C//DTD SVG 20010904//EN"
 "http://www.w3.org/TR/2001/REC-SVG-20010904/DTD/svg10.dtd">
<svg version="1.0" xmlns="http://www.w3.org/2000/svg"
 width="180.000000pt" height="180.000000pt" viewBox="0 0 180.000000 180.000000"
 preserveAspectRatio="xMidYMid meet">
<metadata>
Created by potrace 1.14, written by Peter Selinger 2001-2017
</metadata>
<g transform="translate(0.000000,180.000000) scale(0.100000,-0.100000)"
fill="#000000" stroke="none">
<path d="M940 1585 c-74 -16 -164 -46 -171 -57 -3 -5 -10 -9 -15 -9 -19 2
-122 -70 -175 -122 -85 -83 -169 -222 -183 -302 -3 -13 -7 -28 -10 -33 -14
-23 -24 -251 -11 -271 2 -5 7 -26 11 -47 17 -109 104 -259 203 -352 90 -84
220 -150 341 -175 99 -20 244 -15 330 12 l65 20 -2 133 c-1 73 -2 139 -2 147
-1 11 -6 10 -26 -3 -14 -9 -25 -13 -25 -9 0 5 -4 3 -8 -3 -12 -18 -97 -41
-160 -43 -102 -3 -213 41 -286 114 -39 39 -97 131 -102 163 -3 14 -9 31 -13
37 -5 5 -8 55 -7 110 2 77 8 113 26 158 12 31 27 57 31 57 5 0 9 6 9 14 0 24
96 111 162 146 59 32 69 34 158 34 103 1 120 -3 186 -34 24 -12 46 -22 50 -23
11 -3 10 284 -1 300 -28 38 -265 62 -375 38z"/>
</g>
</svg>
