<svg width="32" height="24" viewBox="0 0 32 24" fill="none" xmlns="http://www.w3.org/2000/svg">
<path d="M4.12903 0.5H27.871C29.8701 0.5 31.5 2.13976 31.5 4.17391V19.8261C31.5 21.8602 29.8701 23.5 27.871 23.5H4.12903C2.12986 23.5 0.5 21.8602 0.5 19.8261V4.17391C0.5 2.13976 2.12986 0.5 4.12903 0.5Z" fill="white" stroke="black"/>
<path fill-rule="evenodd" clip-rule="evenodd" d="M8.66996 8.97799C8.92496 8.66099 9.09696 8.23499 9.05096 7.79999C8.67996 7.81799 8.22696 8.04499 7.96496 8.36199C7.72896 8.63399 7.52096 9.07799 7.57496 9.49499C7.99196 9.53099 8.40796 9.28599 8.67096 8.97799H8.66996ZM9.04596 9.57699C8.44096 9.53999 7.92596 9.91999 7.63696 9.91999C7.34796 9.91999 6.90596 9.59499 6.42696 9.60399C5.80396 9.61299 5.22596 9.96399 4.90996 10.525C4.25996 11.645 4.73796 13.308 5.36996 14.221C5.67796 14.673 6.04796 15.17 6.53496 15.152C6.99496 15.134 7.17696 14.854 7.73696 14.854C8.29696 14.854 8.45896 15.152 8.94696 15.144C9.45196 15.134 9.76896 14.691 10.076 14.239C10.428 13.724 10.572 13.227 10.581 13.2C10.572 13.19 9.60596 12.82 9.59696 11.709C9.58696 10.779 10.356 10.336 10.392 10.309C9.95796 9.66699 9.28096 9.59499 9.04596 9.57699V9.57699ZM13.59 11.897H14.797C15.713 11.897 16.234 11.404 16.234 10.549C16.234 9.69399 15.713 9.20499 14.801 9.20499H13.59V11.897ZM15.078 8.31699C16.394 8.31699 17.31 9.22399 17.31 10.544C17.31 11.869 16.375 12.78 15.046 12.78H13.589V15.096H12.537V8.31699H15.078ZM20.765 13.254V12.874L19.595 12.949C18.937 12.991 18.595 13.235 18.595 13.663C18.595 14.076 18.951 14.344 19.51 14.344C20.224 14.344 20.765 13.888 20.765 13.254V13.254ZM17.57 13.691C17.57 12.822 18.233 12.324 19.454 12.249L20.764 12.169V11.793C20.764 11.243 20.403 10.943 19.759 10.943C19.229 10.943 18.843 11.215 18.763 11.633H17.814C17.843 10.755 18.669 10.116 19.788 10.116C20.99 10.116 21.775 10.746 21.775 11.723V15.096H20.802V14.283H20.779C20.502 14.813 19.891 15.147 19.229 15.147C18.252 15.147 17.57 14.565 17.57 13.691V13.691ZM22.67 16.91V16.097C22.736 16.106 22.896 16.115 22.98 16.115C23.445 16.115 23.708 15.918 23.868 15.411L23.962 15.111L22.182 10.178H23.281L24.521 14.18H24.545L25.785 10.178H26.855L25.01 15.359C24.587 16.548 24.103 16.938 23.079 16.938C22.999 16.938 22.741 16.928 22.67 16.909V16.91Z" fill="#111111"/>
</svg>
