<svg width="32" height="24" viewBox="0 0 32 24" fill="none" xmlns="http://www.w3.org/2000/svg">
<rect width="32" height="24" rx="4" fill="#D13239"/>
<path fill-rule="evenodd" clip-rule="evenodd" d="M11.446 7.7201C11.3188 7.58544 11.1355 7.48071 10.9335 7.39842C10.7203 7.31613 10.4847 7.25628 10.2528 7.21514C9.96102 7.16277 9.67674 7.14033 9.47476 7.13285C9.28773 7.12537 9.16804 7.12537 9.16804 7.12537H6.60956H4.70566L3 17.4266H4.59344L5.22184 13.6113L8.31147 13.6263C8.31147 13.6263 9.5159 13.6749 10.3687 13.2223C11.2216 12.7697 11.4497 11.7411 11.4497 11.7411C11.4497 11.7411 11.5432 11.3596 11.6218 10.8958C11.7078 10.3833 11.7939 9.76988 11.8387 9.44446C11.8574 9.30232 11.8687 9.21255 11.8687 9.21255C11.8687 9.21255 11.8911 9.10782 11.8911 8.94324C11.8948 8.71507 11.8612 8.37094 11.6816 8.04178C11.618 7.92583 11.5432 7.82109 11.446 7.7201ZM10.2191 9.53797C10.2191 9.55667 10.077 10.3833 9.88995 11.3633C9.81888 11.7374 9.53087 11.9394 9.2017 12.0104C8.65559 12.1264 8.06834 12.1039 8.06834 12.1039L5.48741 12.0965L6.05597 8.67392L8.39376 8.6814C8.39376 8.6814 8.55086 8.67766 8.77155 8.6814C9.02216 8.68514 9.35506 8.69636 9.62812 8.73377C9.86377 8.76369 10.0508 8.81232 10.1106 8.88713C10.1892 8.98438 10.2191 9.11156 10.2303 9.22377C10.2453 9.38835 10.2191 9.52675 10.2191 9.53797Z" fill="white"/>
<path fill-rule="evenodd" clip-rule="evenodd" d="M12.9909 10.7349L14.603 10.7386L14.7003 10.114C14.7003 10.114 14.8723 8.98436 15.2576 8.76742C15.381 8.69635 15.5793 8.63276 15.8075 8.59161C16.2301 8.5168 16.765 8.50932 17.2027 8.52428C17.8722 8.54673 18.1266 8.55421 18.8073 8.63276C19.4881 8.71131 19.316 9.36963 19.316 9.36963L19.1814 10.3534C19.1814 10.3534 19.1215 10.7948 18.9644 11.0678C18.826 11.3109 18.4445 11.4755 18.2238 11.5466C17.6927 11.7186 15.8748 12.1825 15.8748 12.1825L14.4459 12.5939C14.4459 12.5939 13.5669 12.8483 13.0769 13.3906C12.5832 13.9367 12.3887 14.5539 12.3213 14.8756C12.254 15.1973 11.8762 17.4229 11.8762 17.4229L19.5891 17.4266L19.8472 15.8855L13.7465 15.893L13.8549 15.2646C13.8549 15.2646 13.926 14.6175 14.1878 14.4043C14.2701 14.337 14.3113 14.2472 14.7975 14.0751C15.0893 13.9704 16.0843 13.7048 16.0843 13.7048L18.3846 13.0764C18.3846 13.0764 19.6414 12.7548 20.1352 12.0665C20.6289 11.382 20.8197 10.0691 20.8197 10.0691C20.8197 10.0691 20.9543 8.7936 20.8496 8.39337C20.7486 7.99314 20.3708 7.51436 19.9108 7.30863C19.4507 7.10291 18.9719 6.98321 17.5842 7.00191C16.1965 7.02061 15.5082 7.0842 14.805 7.34604C14.1018 7.60413 13.6941 8.07543 13.436 8.74123C13.1555 9.37337 12.9909 10.7349 12.9909 10.7349Z" fill="#D4D4D4"/>
<path fill-rule="evenodd" clip-rule="evenodd" d="M27.5113 13.6001L28.5923 7.12164H26.6772L20.7149 13.5253L20.4456 15.1487H25.6598L25.2783 17.4229L26.8792 17.4266L27.257 15.1487L28.7344 15.1524L29 13.6001H27.5113ZM25.9179 13.6039L22.5477 13.6001L26.651 9.22753L25.9179 13.6039Z" fill="#D4D4D4"/>
</svg>
