<svg width="32" height="24" viewBox="0 0 32 24" fill="none" xmlns="http://www.w3.org/2000/svg">
<rect width="32" height="24" rx="4" fill="white"/>
<path fill-rule="evenodd" clip-rule="evenodd" d="M28 0H4C1.79086 0 0 1.79086 0 4V20C0 22.2091 1.79086 24 4 24H28C29.8827 24 31.4616 22.6993 31.8871 20.9474H31.5628C31.516 20.7449 31.503 20.6771 31.4831 20.5741C31.4755 20.5342 31.4667 20.489 31.4547 20.4286C31.4439 20.3205 31.4385 20.1908 31.4331 20.0611C31.4277 19.9314 31.4222 19.8017 31.4114 19.6936C30.8278 20.2773 30.1576 20.7096 29.3794 20.9474C28.6012 21.1852 27.8014 21.2933 27.0015 21.2933C26.3746 21.2933 25.7909 21.2068 25.2505 21.0555C24.7101 20.9042 24.2345 20.6664 23.8238 20.3421C23.413 20.0179 23.1104 19.6072 22.8726 19.1316C22.6348 18.6344 22.5267 18.0507 22.5267 17.3806C22.5267 16.6456 22.6564 16.0187 22.9158 15.5431C23.1753 15.0675 23.5211 14.6784 23.9319 14.3758C24.3426 14.0947 24.8182 13.8786 25.3586 13.7273C25.899 13.5759 26.4178 13.4678 26.9583 13.3814C27.4987 13.2949 28.0391 13.2301 28.558 13.1868C29.0768 13.1436 29.5524 13.0571 29.9631 12.949C30.3738 12.8409 30.6981 12.6896 30.9359 12.4951C31.1737 12.3005 31.2817 12.0195 31.2601 11.652C31.2601 11.2629 31.1953 10.9602 31.0656 10.7225C30.9359 10.4847 30.7629 10.3117 30.5684 10.182C30.3522 10.0523 30.1144 9.96585 29.8334 9.92261C29.5524 9.87938 29.2497 9.85776 28.9471 9.85776C28.2337 9.85776 27.6933 10.0091 27.2825 10.3117C26.8718 10.6144 26.634 11.1332 26.5692 11.8465H22.9158C22.9807 11.0467 23.1969 10.3333 23.5644 9.77129C23.9319 9.20924 24.4074 8.75528 24.9911 8.43102C25.5748 8.08514 26.2017 7.84735 26.9367 7.69603C27.65 7.54471 28.385 7.47986 29.0984 7.47986C29.7469 7.47986 30.417 7.52309 31.1088 7.60956C31.4156 7.64915 31.7134 7.7114 32 7.79216V4C32 1.79086 30.2091 0 28 0ZM9.12407 2.85376V9.81452H16.4523V2.85376H20.4515V20.969H16.4523V13.1436H9.12407V20.969H5.14648V2.85376H9.12407ZM30.1312 15.0172C30.3112 14.9754 30.483 14.9355 30.6548 14.873C30.8926 14.7865 31.0872 14.6784 31.2169 14.5919V15.9322C31.2169 16.1484 31.1953 16.4078 31.152 16.7537C31.1088 17.0779 31.0007 17.4238 30.8062 17.7481C30.6116 18.0723 30.3306 18.3534 29.9415 18.5911C29.5524 18.8289 29.0119 18.937 28.2985 18.937C27.9959 18.937 27.7149 18.8938 27.4555 18.8505C27.1744 18.8073 26.9367 18.7208 26.7421 18.5911C26.5476 18.4614 26.3746 18.2885 26.2665 18.0723C26.1584 17.8345 26.0936 17.5751 26.0936 17.2509C26.0936 16.905 26.1584 16.624 26.2665 16.4078C26.3962 16.1916 26.5476 16.0187 26.7421 15.8674C26.9367 15.716 27.1744 15.608 27.4339 15.5215C27.6933 15.435 27.9743 15.3702 28.2337 15.3269C28.3742 15.3053 28.5201 15.2837 28.666 15.2621C28.812 15.2405 28.9579 15.2188 29.0984 15.1972C29.3794 15.154 29.6604 15.1108 29.9198 15.0675C29.9918 15.0495 30.0621 15.0332 30.1312 15.0172Z" fill="url(#paint0_linear)"/>
<defs>
<linearGradient id="paint0_linear" x1="6.01803e-07" y1="24.0836" x2="22.9924" y2="-7.18974" gradientUnits="userSpaceOnUse">
<stop stop-color="#0063A5"/>
<stop offset="1" stop-color="#008DC7"/>
</linearGradient>
</defs>
</svg>
