<svg width="32" height="24" viewBox="0 0 32 24" fill="none" xmlns="http://www.w3.org/2000/svg">
<path d="M27.871 0H4.12903C1.84863 0 0 1.86872 0 4.17391V19.8261C0 22.1313 1.84863 24 4.12903 24H27.871C30.1514 24 32 22.1313 32 19.8261V4.17391C32 1.86872 30.1514 0 27.871 0Z" fill="#0095FF"/>
<mask id="mask0" mask-type="alpha" maskUnits="userSpaceOnUse" x="4" y="0" width="24" height="24">
<circle cx="16" cy="12" r="12" fill="#222222"/>
</mask>
<g mask="url(#mask0)">
<circle cx="16" cy="12" r="12" fill="#0095FF"/>
<path fill-rule="evenodd" clip-rule="evenodd" d="M4 9.79225L4.89744 7.70001H6.44945L6.95876 8.872V7.70001H8.88806L9.19125 8.54709L9.48518 7.70001H18.1458V8.12587C18.1458 8.12587 18.601 7.70001 19.3493 7.70001L22.1593 7.70983L22.6598 8.86648V7.70001H24.2744L24.7187 8.36441V7.70001H26.3481V11.4586H24.7187L24.2929 10.7921V11.4586H21.9207L21.6822 10.8661H21.0445L20.8098 11.4586H19.2011C18.5573 11.4586 18.1458 11.0415 18.1458 11.0415V11.4586H15.7202L15.2388 10.8661V11.4586H6.21953L5.98115 10.8661H5.34547L5.10877 11.4586H4V9.79225ZM5.21503 8.16336L4.00459 10.9777H4.79265L5.01599 10.4141H6.31438L6.53657 10.9777H7.34199L6.1327 8.16336H5.21503ZM5.66287 8.81834L6.05864 9.80313H5.26595L5.66287 8.81834ZM7.42539 8.16288V10.9772H8.12897V8.90349L8.87687 10.9772H9.49391L10.2397 8.90349V10.9772H10.9433V8.16288H9.83239L9.19663 9.98154L8.54527 8.16704L7.42539 8.16288ZM11.4247 10.9772V8.16288H13.7206V8.7924H12.1357V9.2738H13.6836V9.86629H12.1357V10.3662H13.7206V10.9772H11.4247ZM14.1279 10.9777V8.16336H15.6936C16.2124 8.16336 16.6773 8.48416 16.6773 9.0764C16.6773 9.58268 16.2853 9.90877 15.9054 9.94084L16.8312 10.9777H15.9714L15.1278 9.97786H14.8315V10.9777H14.1279ZM15.6358 8.79288H14.8315V9.38537H15.6462C15.7872 9.38537 15.9691 9.2761 15.9691 9.08913C15.9691 8.9438 15.8287 8.79288 15.6358 8.79288ZM17.6828 10.9772H16.9645V8.16288H17.6828V10.9772ZM19.2312 10.9772H19.3863L19.6825 10.3625H19.4974C19.0493 10.3625 18.7382 10.1336 18.7382 9.58856C18.7382 9.12959 19.0102 8.82943 19.3949 8.82943H20.2009V8.16288H19.4233C18.4758 8.16288 18.0254 8.75725 18.0254 9.58162C18.0254 10.3861 18.4809 10.9772 19.2312 10.9772ZM20.9173 8.16336L19.7068 10.9777H20.4949L20.7182 10.4141H22.0166L22.2388 10.9777H23.0442L21.8349 8.16336H20.9173ZM21.3651 8.81834L21.7609 9.80313H20.9682L21.3651 8.81834ZM23.1264 8.16288V10.9772H23.83V9.16271L25.0011 10.9772H25.8667V8.16288H25.1631V9.9311L24.0209 8.16288H23.1264Z" fill="white"/>
<path fill-rule="evenodd" clip-rule="evenodd" d="M8.64734 12.6251V16.3837H12.6021L13.035 15.8151L13.4613 16.3837H15.8498V15.5135H16.3868C16.8526 15.5135 17.0681 15.3723 17.0681 15.3723V16.3837H18.6457V15.7912L19.1271 16.3837H27.1257C27.5626 16.3799 27.9404 16.1245 27.9404 16.1245V15.3635C27.8253 15.6798 27.5425 15.9023 27.0823 15.9023H25.5828V15.2913H26.9909C27.1992 15.2913 27.2894 15.1787 27.2894 15.0552C27.2894 14.9369 27.1995 14.8173 26.9909 14.8173H26.3546C25.8015 14.8173 25.4934 14.4803 25.4934 13.9744C25.4934 13.5231 25.7755 13.088 26.5974 13.088H27.9404V12.6251H13.4951L13.054 13.1817L12.627 12.6251H8.64734ZM27.9404 13.146L27.6713 13.7212H26.4863C26.2598 13.7212 26.1901 13.8401 26.1901 13.9536C26.1901 14.0702 26.2762 14.1989 26.4493 14.1989H27.1158C27.5667 14.1989 27.8309 14.3859 27.9404 14.6655V13.146ZM9.12868 13.088V15.9023H11.4246V15.2913H9.83967V14.7914H11.3876V14.1989H9.83967V13.7175H11.4246V13.088H9.12868ZM22.6746 15.9023H20.3787V13.088H22.6746V13.7175H21.0897V14.1989H22.6302V14.7914H21.0897V15.2913H22.6746V15.9023ZM12.6316 14.5125L11.5137 15.9023H12.3874L13.0331 15.0356L13.6949 15.9023H14.5812L13.4613 14.4951L14.5907 13.088H13.739L13.0551 13.9686L12.3735 13.088H11.4871L12.6316 14.5125ZM14.6648 13.0884V15.9028H15.3869V15.014H16.1275C16.7542 15.014 17.2292 14.6816 17.2292 14.035C17.2292 13.4995 16.8566 13.0884 16.2189 13.0884H14.6648ZM15.3869 13.7249H16.1669C16.3693 13.7249 16.514 13.849 16.514 14.0489C16.514 14.2368 16.37 14.373 16.1646 14.373H15.3869V13.7249ZM18.2383 15.9023H17.5347V13.088H19.1004C19.6192 13.088 20.0841 13.4088 20.0841 14.001C20.0841 14.5073 19.6922 14.8334 19.3122 14.8655L20.238 15.9023H19.3782L18.5346 14.9025H18.2383V15.9023ZM19.0426 13.7175H18.2383V14.31H19.053C19.194 14.31 19.3759 14.2007 19.3759 14.0137C19.3759 13.8684 19.2355 13.7175 19.0426 13.7175ZM23.0004 15.9023V15.2913H24.4085C24.6169 15.2913 24.7071 15.1787 24.7071 15.0552C24.7071 14.9369 24.6172 14.8173 24.4085 14.8173H23.7722C23.2191 14.8173 22.9111 14.4803 22.9111 13.9744C22.9111 13.5231 23.1932 13.088 24.0151 13.088H25.3852L25.089 13.7212H23.904C23.6775 13.7212 23.6077 13.8401 23.6077 13.9536C23.6077 14.0702 23.6939 14.1989 23.867 14.1989H24.5335C25.1501 14.1989 25.4176 14.5486 25.4176 15.0066C25.4176 15.499 25.1195 15.9023 24.4999 15.9023H23.0004Z" fill="white"/>
</g>
</svg>
