<svg xmlns="http://www.w3.org/2000/svg" width="62" height="40" viewBox="0 0 62 40"><g fill="none" fill-rule="evenodd" transform="translate(19 11)"><rect width="23" height="17" x=".5" y=".5" fill="#FFF" stroke="#000" stroke-opacity=".1" rx="3"/><g transform="translate(5.813 3.938)"><path fill="#003466" d="M4.33297886 6.1875L7.23464338 6.1875C7.99443199 6.1875 8.24329688 6.51980864 8.24329688 7.03679019 8.24329688 7.60548015 7.78478493 7.85653271 7.31317004 7.89346729 7.79788787 7.93778879 8.25639982 8.00427104 8.25639982 8.67627523 8.25639982 9.12677453 8.02063787 9.5625 7.19533456 9.5625L4.33297886 9.5625 4.33297886 6.1875zM5.76738695 8.87572197L6.52717555 8.87572197C6.80888879 8.87572197 6.89396691 8.74275748 6.89396691 8.54341333 6.89396691 8.35874042 6.80888879 8.22577593 6.52717555 8.22577593L5.76738695 8.22577593 5.76738695 8.87572197zM5.76738695 7.60548015L6.4944182 7.60548015C6.76302849 7.60548015 6.86776103 7.48728949 6.86776103 7.28784275 6.86776103 7.07372477 6.76302849 6.95553411 6.51407261 6.95553411L5.76738695 6.95553411 5.76738695 7.60548015zM3.65171691 9.38379665C3.31113143 9.49813103 2.86572243 9.5625 2.46617371 9.5625 1.04486857 9.5625.00991819853 9.12632079.00991819853 7.85354368.00991819853 6.68804818 1.01866268 6.1875 2.39410754 6.1875 2.78055331 6.1875 3.26527114 6.23041264 3.65171691 6.35905124L3.65171691 7.49603764C3.37009467 7.30293075 3.08847243 7.18849703 2.67582077 7.18849703 2.15834559 7.18849703 1.62121599 7.48173343 1.62121599 7.88215211 1.62121599 8.28972289 2.15834559 8.57570785 2.67582077 8.57570785 3.07536949 8.57570785 3.37009467 8.44706925 3.65171691 8.26826657L3.65171691 9.38379665M12.3042987 9.38379665C11.9637132 9.49813103 11.5183042 9.5625 11.1187555 9.5625 9.69745037 9.5625 8.65594853 9.12632079 8.65594853 7.85354368 8.65594853 6.68804818 9.66469301 6.1875 11.0466893 6.1875 11.4265836 6.1875 11.9178529 6.23041264 12.3042987 6.35905124L12.3042987 7.49603764C12.0095735 7.30293075 11.7279513 7.18849703 11.3284026 7.18849703 10.8043759 7.18849703 10.2737978 7.48173343 10.2737978 7.88215211 10.2737978 8.28972289 10.791273 8.57570785 11.3284026 8.57570785 11.7279513 8.57570785 12.0095735 8.44706925 12.3042987 8.26826657L12.3042987 9.38379665"/><path fill="#019ACC" d="M6.33072243,4.25075893 C7.4769568,4.25075893 8.40708364,3.31326964 8.40708364,2.15948571 C8.40708364,1.01881607 7.4769568,0.0813267857 6.33072243,0.0813267857 C5.17793658,0.0813267857 4.24780974,1.01881607 4.24780974,2.15948571 C4.24780974,3.31326964 5.17793658,4.25075893 6.33072243,4.25075893"/><path fill="#019ACC" d="M5.87221048,4.70966786 C5.17793658,4.70966786 4.56874081,4.440825 4.18884651,4.14584464 C1.92258364,4.38190179 4e-16,4.72278214 4e-16,4.72278214 L4e-16,5.625 L12.375,5.625 L12.375,3.74595 C12.375,3.74595 10.2279375,3.73283571 7.87650551,3.85086429 C7.4769568,4.2769875 6.76302849,4.70966786 5.87221048,4.70966786 Z"/></g></g></svg>