<svg xmlns="http://www.w3.org/2000/svg" width="62" height="40" viewBox="0 0 62 40"><g fill="none" fill-rule="evenodd" transform="translate(19 11)"><rect width="23" height="17" x=".5" y=".5" fill="#FFF" stroke="#000" stroke-opacity=".1" rx="3"/><g transform="translate(5.813 3.938)"><path fill="#019ACC" d="M6.24697843,4.25509713 C7.4248257,4.25509713 8.37957438,3.31129561 8.37957438,2.14708277 C8.37957438,0.982956081 7.4248257,0.0391114865 6.24697843,0.0391114865 C5.06917474,0.0391114865 4.11442606,0.982956081 4.11442606,2.14708277 C4.11442606,3.31129561 5.06917474,4.25509713 6.24697843,4.25509713"/><path fill="#019ACC" d="M5.77786136,4.72344426 C5.06464305,4.72344426 4.45042474,4.44944848 4.0598279,4.14486993 C1.73154137,4.38638767 0,4.72869932 0,4.72869932 L0,5.625 L12.375,5.625 C12.375,4.36690709 12.375,3.73786064 12.375,3.73786064 C12.375,3.73786064 10.2353015,3.72489527 7.81991065,3.85261064 C7.41367077,4.28796284 6.69714085,4.72344426 5.77786136,4.72344426 Z"/><polygon fill="#003466" points="1.467 9.563 0 9.563 0 6.188 1.467 6.188 1.467 7.706 2.339 6.188 4.099 6.188 2.81 7.932 4.026 9.563 2.347 9.563 1.477 8.294"/><path fill="#003466" d="M12.3516879 9.38332439C12.0054058 9.4959358 11.5503195 9.5625 11.143121 9.5625 9.69149868 9.5625 8.62576717 9.12296274 8.62576717 7.84464227 8.62576717 6.68942379 9.65873107 6.1875 11.0707883 6.1875 11.4632588 6.1875 11.9617447 6.23364004 12.3516879 6.36625784L12.3511651 7.48522343C12.0621827 7.29876011 11.7732003 7.18252806 11.3593349 7.18252806 10.820761 7.18252806 10.2824921 7.46507778 10.2824921 7.87518567 10.2824921 8.2863612 10.8183644 8.56793613 11.3593349 8.56793613 11.766577 8.56793613 12.0621827 8.44780492 12.3511651 8.26992903L12.3516879 9.38332439M5.80622799 7.61782781L6.5370066 7.61782781C6.8194529 7.61782781 6.93008715 7.4914554 6.93008715 7.29766191 6.93008715 7.07557178 6.8184507 6.96469515 6.55739921 6.96469515L5.80614085 6.96469515 5.80622799 7.61782781zM5.80622799 8.87635459L6.57125572 8.87635459C6.85797227 8.87635459 6.95566505 8.74521795 6.95566505 8.5515207 6.95566505 8.35772721 6.85701364 8.21850582 6.57452377 8.21850582L5.80614085 8.21850582 5.80622799 8.87635459zM4.33896259 6.1875L7.30499736 6.1875C8.07547183 6.1875 8.32798283 6.51839745 8.32798283 7.03355993 8.32798283 7.61022429 7.86139305 7.86080356 7.38207967 7.88905207L7.38207967 7.89858053C7.87420379 7.94116987 8.35360431 8.00252738 8.35360431 8.68318671 8.35360431 9.12760758 8.10109331 9.5625 7.25362368 9.5625L4.33896259 9.5625 4.33896259 6.1875z"/></g></g></svg>