<svg width="32" height="24" viewBox="0 0 32 24" fill="none" xmlns="http://www.w3.org/2000/svg">
<path d="M4.12903 0.5H27.871C29.8701 0.5 31.5 2.13976 31.5 4.17391V19.8261C31.5 21.8602 29.8701 23.5 27.871 23.5H4.12903C2.12986 23.5 0.5 21.8602 0.5 19.8261V4.17391C0.5 2.13976 2.12986 0.5 4.12903 0.5Z" fill="white" stroke="#E6E6E6"/>
<path d="M23.7419 12.1512C23.7318 12.1713 23.7318 12.1713 23.7218 12.1814C22.713 13.1665 21.7245 14.1617 20.6956 15.1167C19.9088 15.8506 18.9909 16.4035 17.9418 16.705C15.8033 17.3082 13.8161 16.9664 12.0004 15.6797C11.3851 15.2474 10.8505 14.7347 10.3158 14.212C9.64 13.5485 8.97425 12.8851 8.30849 12.2216C8.28832 12.2015 8.27823 12.1814 8.25806 12.1613C8.26814 12.1412 8.27823 12.1311 8.29841 12.111C9.18608 11.2364 10.0536 10.3618 10.9513 9.49732C11.6877 8.78358 12.5149 8.18043 13.4832 7.80848C15.7327 6.94395 17.8611 7.19527 19.8684 8.53227C20.5645 8.99469 21.1596 9.56769 21.7547 10.1507C22.4003 10.7841 23.0358 11.4274 23.6713 12.0607C23.6814 12.0909 23.7117 12.1211 23.7419 12.1512ZM10.1545 12.1512C10.1746 12.1713 10.1948 12.2015 10.215 12.2216C10.679 12.684 11.1329 13.1464 11.5969 13.5988C12.0609 14.0612 12.535 14.5136 13.0797 14.8855C14.5121 15.8506 16.0555 16.0617 17.6896 15.5088C18.5168 15.2273 19.2128 14.7247 19.8382 14.1215C20.4938 13.4882 21.1394 12.8448 21.785 12.2015C21.8052 12.1814 21.8153 12.1613 21.8254 12.1412C21.8052 12.1211 21.785 12.1009 21.7749 12.0808C21.321 11.6285 20.8772 11.1661 20.4131 10.7237C19.9895 10.3216 19.5658 9.90948 19.1018 9.55763C17.7501 8.53227 16.237 8.24074 14.5928 8.68306C13.6951 8.92432 12.9486 9.4169 12.2829 10.0402C11.5667 10.7137 10.8807 11.4073 10.1847 12.0909C10.1847 12.1211 10.1746 12.1311 10.1545 12.1512Z" fill="black"/>
</svg>
