<svg width="32" height="24" viewBox="0 0 32 24" fill="none" xmlns="http://www.w3.org/2000/svg">
<path d="M28 0H4C1.79086 0 0 1.79086 0 4V20C0 22.2091 1.79086 24 4 24H28C30.2091 24 32 22.2091 32 20V4C32 1.79086 30.2091 0 28 0Z" fill="#EB008B"/>
<path fill-rule="evenodd" clip-rule="evenodd" d="M13 9.75V13.799H14.0538V12.209H15.1942V11.3505H14.0538V10.6716H15.9069V9.75H13Z" fill="white"/>
<path fill-rule="evenodd" clip-rule="evenodd" d="M17.9462 13.0723C17.4505 13.0723 17.0151 12.5386 17.0151 11.8716C17.0151 11.2074 17.4505 10.6667 17.9462 10.6667C18.3121 10.6667 18.6292 10.9622 18.7736 11.386L19.7678 11.1C19.4765 10.3078 18.7736 9.75 17.9462 9.75C16.8703 9.75 16 10.702 16 11.8716C16 13.0385 16.8703 13.9866 17.9462 13.9866C18.7736 13.9866 19.4765 13.4257 19.7678 12.6387L18.7736 12.3572C18.6292 12.772 18.3121 13.0723 17.9462 13.0723Z" fill="white"/>
<path fill-rule="evenodd" clip-rule="evenodd" d="M7.75 11.6071C7.75 16.5514 11.4573 20.25 16.3929 20.25C20.5482 20.25 24.25 16.5514 24.25 11.6071C24.25 7.44941 20.5482 3.75 16.3929 3.75C11.4573 3.75 7.75 7.44941 7.75 11.6071ZM9.32143 11.6071C9.32143 8.31799 12.3191 5.32143 15.6071 5.32143C19.6758 5.32143 22.6786 8.31799 22.6786 11.6071C22.6786 15.6765 19.6758 18.6786 15.6071 18.6786C12.3191 18.6786 9.32143 15.6765 9.32143 11.6071Z" fill="white"/>
</svg>
