<svg width="32" height="24" viewBox="0 0 32 24" fill="none" xmlns="http://www.w3.org/2000/svg">
<path d="M26.3997 0H5.60025C2.50732 0 0 2.50732 0 5.60025V18.3997C0 21.4927 2.50732 24 5.60025 24H26.3997C29.4927 24 32 21.4927 32 18.3997V5.60025C32 2.50732 29.4927 0 26.3997 0Z" fill="white"/>
<mask id="mask0" mask-type="alpha" maskUnits="userSpaceOnUse" x="0" y="0" width="32" height="24">
<rect width="32" height="24" rx="4" fill="#00B7F1"/>
</mask>
<g mask="url(#mask0)">
<rect width="32" height="24" rx="4" fill="#00B7F1"/>
<path d="M20 21C12.1625 24.1425 4.12312 22.5526 0 20V24H32L32 13C29.4018 16.2708 25.3711 18.846 20 21Z" fill="#9FCD5A"/>
</g>
<path d="M27 10C26.2742 12.3226 20.8573 16.5059 17.6072 17.8625C12.8672 19.8417 8.39679 18.9625 5.9032 17.3549V9.79452C7.46054 7.88879 10.5226 5.77948 13.5124 4.49592C13.3051 4.59223 13.7127 4.39276 13.5124 4.49592C18.3195 2.25515 23.13 2.56737 24.26 5.19339C25.39 7.81941 21.781 11.3375 16.977 13.5801C16.6503 13.7322 16.3246 13.8722 16 14C20.2394 11.7081 23.3877 8.54062 22.334 6.09216C21.3561 3.824 17.626 3.31978 13.5278 4.66452C9.11388 6.75967 6.18285 10.0853 6.29549 12.8108C6.77764 12.1448 7.80506 11.3825 9.10073 10.7996C11.0973 9.90224 12.9636 9.77307 13.2691 10.5098C13.5747 11.2465 12.2036 12.5716 10.2071 13.4686C8.77375 14.1131 7.41058 14.3587 6.64089 14.1747C8.0365 16.9363 13.0798 18.3573 18.4194 16.128C21.3048 14.9238 25.5855 11.83 27 10Z" fill="white"/>
<path d="M4.93309 11.7271C5.15575 11.3798 5.39829 11.0302 5.65884 10.6932C5.6661 10.7783 5.67334 10.869 5.68052 10.9647C5.73439 11.6836 5.78251 12.6619 5.80657 13.6369C5.83068 14.6139 5.83036 15.577 5.789 16.2692C5.77806 16.4522 5.76457 16.6101 5.749 16.7411C4.28148 15.4656 3.90058 13.3374 4.93309 11.7271Z" fill="white" stroke="white" stroke-width="0.774194"/>
</svg>
