<svg width="32" height="24" viewBox="0 0 32 24" fill="none" xmlns="http://www.w3.org/2000/svg">
<path d="M28 0H4C1.79086 0 0 1.79086 0 4V20C0 22.2091 1.79086 24 4 24H28C30.2091 24 32 22.2091 32 20V4C32 1.79086 30.2091 0 28 0Z" fill="#652189"/>
<path d="M6 15.5732L6.37051 14.2764C7.10411 14.4913 7.71174 14.6543 8.45276 14.6543C9.34939 14.6543 9.55687 14.4839 9.66802 13.817C9.70508 13.6539 9.71249 13.5206 9.71249 13.4168C9.71249 13.0685 9.48277 12.9796 8.54909 12.7425C7.27455 12.4239 6.8003 11.9718 6.8003 11.0752C6.8003 10.8307 6.83735 10.5565 6.88922 10.2453C7.22267 8.54835 7.6821 8.20007 9.75695 8.20007C10.3423 8.20007 11.3057 8.32605 11.9874 8.49648L11.691 9.91182C11.0167 9.74879 10.1423 9.64505 9.63097 9.64505C8.80104 9.64505 8.64542 9.75621 8.54168 10.3712C8.51945 10.5417 8.49722 10.6825 8.49722 10.7862C8.49722 11.1567 8.72694 11.2086 9.62356 11.4383C11.0463 11.794 11.4391 12.2312 11.4391 13.0093C11.4391 13.2538 11.402 13.5132 11.3501 13.8244C11.076 15.3953 10.5202 16.0771 8.35643 16.0771C7.71174 16.0771 6.60022 15.8622 6 15.5732Z" fill="white"/>
<path d="M17.8044 9.65987C17.6265 10.7936 16.967 11.3123 15.5813 11.7495L17.3894 13.8762C17.6265 13.4168 17.8266 12.8685 18.0118 12.2016H18.412C18.1823 12.9944 17.9451 13.6465 17.6487 14.1801L19.0122 15.7436L18.6862 16.04L17.419 14.5506C16.7076 15.6325 15.8036 16.0697 14.6328 16.0697C12.7284 16.0697 12.143 15.1137 12.3875 13.5798C12.595 12.2682 13.4027 11.6828 14.6476 11.2975C14.3142 10.7936 14.2178 10.312 14.3216 9.65246C14.4772 8.68914 15.2404 8 16.3149 8C17.5672 8 17.96 8.68914 17.8044 9.65987ZM15.0848 11.179L15.3368 11.4754C16.6928 11.0382 17.2486 10.6454 17.4042 9.65246C17.5302 8.85958 17.2412 8.3631 16.2556 8.3631C15.3738 8.3631 14.8329 8.91145 14.7217 9.65246C14.618 10.2675 14.7662 10.801 15.0848 11.179ZM17.1671 14.269L14.8699 11.5717C13.6324 11.92 12.9581 12.4757 12.7877 13.5724C12.5728 14.9359 13.1656 15.6991 14.7143 15.6991C15.7517 15.6917 16.552 15.2619 17.1671 14.269Z" fill="white"/>
<path d="M22.2727 11.4976H25.1997L24.933 12.9796H22.006L21.4872 15.9659H19.7977L21.139 8.31863H26L25.7333 9.80807H22.5617L22.2727 11.4976Z" fill="white"/>
</svg>
