<svg width="32" height="24" viewBox="0 0 32 24" fill="none" xmlns="http://www.w3.org/2000/svg">
<path d="M27.871 0H4.12903C1.84863 0 0 1.86872 0 4.17391V19.8261C0 22.1313 1.84863 24 4.12903 24H27.871C30.1514 24 32 22.1313 32 19.8261V4.17391C32 1.86872 30.1514 0 27.871 0Z" fill="#00A3E2"/>
<path d="M2 13C2 11.8954 2.89543 11 4 11H28C29.1046 11 30 11.8954 30 13V20C30 21.1046 29.1046 22 28 22H4C2.89543 22 2 21.1046 2 20V13Z" fill="white"/>
<path d="M5.32037 4.482H7.09337V9H8.25437V4.482H10.0364V3.474H5.32037V4.482ZM12.505 4.959C12.442 4.923 12.271 4.887 12.082 4.887C11.686 4.887 11.353 5.085 11.182 5.373V4.977H10.066V9H11.182V6.507C11.263 6.138 11.569 5.94 11.947 5.94C12.154 5.94 12.352 5.985 12.505 6.075V4.959ZM16.1313 9V6.435C16.1313 5.472 15.5103 4.887 14.4393 4.887C13.5213 4.887 12.8643 5.445 12.7473 6.174H13.8093C13.8993 5.94 14.0883 5.796 14.4033 5.796C14.8533 5.796 15.0603 6.075 15.0603 6.417V6.714C14.8983 6.597 14.4933 6.48 14.1423 6.48C13.2693 6.48 12.5853 7.002 12.5853 7.767C12.5853 8.604 13.2693 9.072 14.0793 9.072C14.5203 9.072 14.9253 8.919 15.0603 8.784V9H16.1313ZM15.0603 7.902C14.9613 8.118 14.6553 8.253 14.3313 8.253C13.9803 8.253 13.6203 8.109 13.6203 7.758C13.6203 7.416 13.9803 7.263 14.3313 7.263C14.6553 7.263 14.9613 7.398 15.0603 7.614V7.902ZM18.886 9L20.416 4.977H19.291L18.382 7.65L17.455 4.977H16.285L17.806 9H18.886ZM23.0771 7.686C22.9871 8.028 22.7081 8.19 22.3301 8.19C21.8351 8.19 21.4931 7.83 21.4571 7.227H24.1391V6.885C24.1391 5.706 23.4911 4.887 22.3121 4.887C21.1871 4.887 20.3771 5.778 20.3771 6.993C20.3771 8.235 21.1601 9.09 22.3301 9.09C23.3381 9.09 23.9681 8.541 24.1121 7.686H23.0771ZM22.3211 5.796C22.7801 5.796 23.0321 6.129 23.0411 6.552H21.4841C21.5831 6.057 21.8891 5.796 22.3211 5.796ZM25.6938 3.15H24.5778V9H25.6938V3.15Z" fill="white"/>
<path d="M7.37473 16.237C7.37473 17.929 8.47273 19.09 9.94873 19.09C11.2537 19.09 12.0547 18.325 12.2617 17.209H11.1187C10.9297 17.722 10.5877 18.064 9.94873 18.064C9.06673 18.064 8.54473 17.281 8.54473 16.237C8.54473 15.184 9.06673 14.41 9.94873 14.41C10.5877 14.41 10.9297 14.752 11.1187 15.256H12.2617C12.0547 14.149 11.2537 13.384 9.94873 13.384C8.47273 13.384 7.37473 14.545 7.37473 16.237ZM12.7174 19H13.8334V16.453C13.9234 16.102 14.2204 15.895 14.5624 15.895C15.0034 15.895 15.2194 16.183 15.2194 16.606V19H16.3354V16.372C16.3354 15.481 15.8224 14.887 14.9134 14.887C14.4454 14.887 14.0494 15.094 13.8334 15.346V13.15H12.7174V19ZM19.4394 17.686C19.3494 18.028 19.0704 18.19 18.6924 18.19C18.1974 18.19 17.8554 17.83 17.8194 17.227H20.5014V16.885C20.5014 15.706 19.8534 14.887 18.6744 14.887C17.5494 14.887 16.7394 15.778 16.7394 16.993C16.7394 18.235 17.5224 19.09 18.6924 19.09C19.7004 19.09 20.3304 18.541 20.4744 17.686H19.4394ZM18.6834 15.796C19.1424 15.796 19.3944 16.129 19.4034 16.552H17.8464C17.9454 16.057 18.2514 15.796 18.6834 15.796ZM23.5583 20.485H24.6743V14.977H23.5583V15.31C23.3783 15.094 22.9823 14.887 22.5503 14.887C21.3803 14.887 20.7143 15.859 20.7143 16.993C20.7143 18.127 21.3803 19.09 22.5503 19.09C22.9823 19.09 23.3783 18.883 23.5583 18.667V20.485ZM23.5583 17.65C23.4233 17.929 23.1263 18.118 22.8023 18.118C22.1993 18.118 21.8393 17.632 21.8393 16.993C21.8393 16.345 22.1993 15.859 22.8023 15.859C23.1353 15.859 23.4233 16.057 23.5583 16.327V17.65Z" fill="#00A3E2"/>
</svg>
