<svg width="32" height="24" viewBox="0 0 32 24" fill="none" xmlns="http://www.w3.org/2000/svg">
<mask id="mask0" mask-type="alpha" maskUnits="userSpaceOnUse" x="0" y="0" width="32" height="24">
<path d="M26.3997 0H5.60025C2.50732 0 0 2.50732 0 5.60025V18.3997C0 21.4927 2.50732 24 5.60025 24H26.3997C29.4927 24 32 21.4927 32 18.3997V5.60025C32 2.50732 29.4927 0 26.3997 0Z" fill="white"/>
</mask>
<g mask="url(#mask0)">
<path d="M33.5005 -0.633759H-2.09973V24.066H33.5005V-0.633759Z" fill="url(#paint0_linear)"/>
<path d="M47.1667 0L33.1 24.3333C31.4 27.2667 27.1667 27.2667 25.5 24.3333L15.8334 7.63333L20.3 0H47.1667Z" fill="url(#paint1_linear)"/>
<path d="M20.2998 0L15.8665 7.6335L11.467 0H20.2998Z" fill="url(#paint2_linear)"/>
<path d="M11.4667 0L15.8667 7.63333L11.4667 15.2667C9.93341 17.9333 6.03341 17.9333 4.50008 15.2667L-4.33325 0H11.4667Z" fill="url(#paint3_linear)"/>
<path d="M6.73329 36.1H24.8C26.8333 36.1 28.1 33.9 27.1 32.1333L18.0333 16.5C17 14.7333 14.4666 14.7333 13.4666 16.5L4.43329 32.1333C3.43329 33.9 4.69995 36.1 6.73329 36.1Z" fill="url(#paint4_linear)"/>
<g filter="url(#filter0_d)">
<path d="M7.75 6.39975L9.25 4.5H22.333L24.25 6.39975L16.75 20.25H14.833L7.75 6.39975Z" fill="black"/>
</g>
<path d="M7.75 6.39975L9.25 4.5H22.333L24.25 6.39975L16.75 20.25H14.833L7.75 6.39975Z" fill="#20419A"/>
<path d="M21.0647 11.6969C20.9132 11.9594 20.6349 12.1225 20.334 12.1215C20.033 12.1206 19.7547 11.9585 19.6037 11.6945L16.9919 7.103C16.7595 6.69603 16.8987 6.17476 17.3028 5.93995C17.7065 5.70562 18.2214 5.84622 18.4533 6.25367C18.4533 6.25367 19.581 8.2345 20.3378 9.56589C21.0997 8.23737 22.234 6.26036 22.234 6.26036C22.4674 5.85387 22.9837 5.71423 23.3869 5.94999C23.7891 6.18719 23.9264 6.70799 23.6926 7.11496L21.0647 11.6969ZM16.7023 19.3103C16.5513 19.5738 16.273 19.735 15.9716 19.7345C15.6706 19.734 15.3923 19.5709 15.2423 19.3079L12.6295 14.7169C12.3981 14.3085 12.5368 13.7887 12.9409 13.5534C13.3446 13.319 13.86 13.4601 14.0914 13.8671C14.0914 13.8671 15.2191 15.8479 15.9758 17.1788C16.7387 15.8503 17.8717 13.8743 17.8717 13.8743C18.1055 13.4668 18.6213 13.3286 19.024 13.5644C19.4268 13.8001 19.564 14.3214 19.3307 14.7279L16.7023 19.3103ZM10.8809 11.7442L8.26857 7.15322C8.03621 6.74529 8.17487 6.2245 8.57855 5.98969C8.98223 5.75583 9.49759 5.89595 9.72901 6.30388C9.72901 6.30388 10.8568 8.28423 11.6149 9.6161C12.3763 8.2871 13.5098 6.3101 13.5098 6.3101C13.7445 5.9036 14.2599 5.76444 14.6621 6.00069C15.0653 6.23741 15.2026 6.7582 14.9688 7.1647L12.3409 11.7466C12.1899 12.0101 11.9107 12.1722 11.6097 12.1713C11.3087 12.1708 11.0309 12.0077 10.8809 11.7442ZM22.8142 4.5H9.18572C8.41102 4.5 7.69405 4.91415 7.30173 5.58893C6.90894 6.26371 6.899 7.09774 7.2757 7.78209L13.9267 19.865C14.3086 20.5585 15.0294 20.9913 15.8145 20.9999C16.5996 21.008 17.3289 20.59 17.725 19.9047L24.702 7.82178C25.0967 7.13839 25.0995 6.29432 24.7091 5.60854C24.3196 4.92323 23.597 4.5 22.8142 4.5Z" fill="white"/>
</g>
<defs>
<filter id="filter0_d" x="3.75" y="1.5" width="24.5" height="23.75" filterUnits="userSpaceOnUse" color-interpolation-filters="sRGB">
<feFlood flood-opacity="0" result="BackgroundImageFix"/>
<feColorMatrix in="SourceAlpha" type="matrix" values="0 0 0 0 0 0 0 0 0 0 0 0 0 0 0 0 0 0 127 0"/>
<feOffset dy="1"/>
<feGaussianBlur stdDeviation="2"/>
<feColorMatrix type="matrix" values="0 0 0 0 0 0 0 0 0 0 0 0 0 0 0 0 0 0 0.29563 0"/>
<feBlend mode="normal" in2="BackgroundImageFix" result="effect1_dropShadow"/>
<feBlend mode="normal" in="SourceGraphic" in2="effect1_dropShadow" result="shape"/>
</filter>
<linearGradient id="paint0_linear" x1="22.7102" y1="11.0471" x2="-4.15974" y2="13.636" gradientUnits="userSpaceOnUse">
<stop stop-color="#009A99"/>
<stop offset="1" stop-color="#006F84"/>
</linearGradient>
<linearGradient id="paint1_linear" x1="28.7582" y1="-1.25524" x2="34.966" y2="10.1774" gradientUnits="userSpaceOnUse">
<stop stop-color="#009A99"/>
<stop offset="1" stop-color="#006F84"/>
</linearGradient>
<linearGradient id="paint2_linear" x1="17.2837" y1="6.51217" x2="15.9734" y2="0.337377" gradientUnits="userSpaceOnUse">
<stop stop-color="#0CA69C"/>
<stop offset="1" stop-color="#006F7C"/>
</linearGradient>
<linearGradient id="paint3_linear" x1="11.2875" y1="12.951" x2="3.14011" y2="-0.272896" gradientUnits="userSpaceOnUse">
<stop stop-color="#009A99"/>
<stop offset="1" stop-color="#006F84"/>
</linearGradient>
<linearGradient id="paint4_linear" x1="12.3874" y1="17.4798" x2="14.0987" y2="25.584" gradientUnits="userSpaceOnUse">
<stop stop-color="#009EB6"/>
<stop offset="1" stop-color="#05B098"/>
</linearGradient>
</defs>
</svg>
